<?xml version="1.0" standalone="no"?>
<!DOCTYPE svg PUBLIC "-//W3C//DTD SVG 20010904//EN"
 "http://www.w3.org/TR/2001/REC-SVG-20010904/DTD/svg10.dtd">
<svg version="1.0" xmlns="http://www.w3.org/2000/svg"
 width="512.000000pt" height="512.000000pt" viewBox="0 0 512.000000 512.000000"
 preserveAspectRatio="xMidYMid meet">

<g transform="translate(0.000000,512.000000) scale(0.100000,-0.100000)"
fill="#000000" stroke="none">
<path d="M1545 3924 c-550 -211 -1011 -392 -1024 -402 -56 -42 -85 -90 -89
-151 -5 -75 9 -118 56 -164 23 -22 156 -99 357 -205 l320 -169 5 -839 c6 -932
0 -865 72 -934 110 -104 371 -182 760 -226 192 -21 725 -30 928 -15 494 37
799 113 936 234 85 75 79 -4 82 952 l2 850 156 93 c86 50 158 92 160 92 2 0 4
-123 4 -273 l0 -274 -39 -18 c-87 -39 -161 -144 -176 -246 -9 -62 10 -147 45
-202 l29 -46 -37 -72 -37 -72 -3 -257 c-5 -372 -24 -352 334 -348 l246 3 29
33 29 32 0 258 c0 141 -5 273 -10 292 -5 20 -23 56 -39 82 l-29 46 28 43 c99
149 44 366 -115 450 l-45 24 0 337 0 338 25 16 c14 9 38 37 52 62 54 91 23
220 -65 275 -20 13 -341 153 -712 312 -1209 516 -1107 475 -1175 474 -54 0
-155 -37 -1060 -385z m1942 -196 c480 -204 873 -374 873 -377 0 -8 -1725
-1025 -1747 -1029 -18 -5 -1965 1020 -1955 1029 4 4 322 127 707 275 385 147
819 314 965 370 146 56 269 103 275 103 5 1 402 -166 882 -371z m220 -2534
c-52 -45 -295 -108 -532 -138 -639 -81 -1497 -17 -1753 130 l-42 25 0 749 c0
444 4 750 9 750 5 0 264 -135 576 -299 369 -195 581 -301 608 -305 27 -4 61
-1 92 9 28 8 277 149 555 313 l505 297 3 -755 2 -755 -23 -21z m724 1083 c87
-59 48 -187 -58 -187 -88 0 -136 96 -82 164 39 50 88 58 140 23z m15 -441 l34
-34 0 -176 0 -176 -105 0 -105 0 0 178 c0 153 3 180 18 198 45 55 109 59 158
10z"/>
</g>
</svg>
