<?xml version="1.0" standalone="no"?>
<!DOCTYPE svg PUBLIC "-//W3C//DTD SVG 20010904//EN"
 "http://www.w3.org/TR/2001/REC-SVG-20010904/DTD/svg10.dtd">
<svg version="1.0" xmlns="http://www.w3.org/2000/svg"
 width="512.000000pt" height="512.000000pt" viewBox="0 0 512.000000 512.000000"
 preserveAspectRatio="xMidYMid meet">

<g transform="translate(0.000000,512.000000) scale(0.100000,-0.100000)"
fill="#000000" stroke="none">
<path d="M2460 3956 c-59 -17 -2078 -1003 -2107 -1029 -35 -31 -47 -79 -30
-119 8 -18 23 -41 33 -50 11 -9 190 -100 399 -202 l380 -185 5 -434 5 -433 27
-41 c34 -52 126 -113 228 -153 301 -116 876 -178 1385 -151 640 35 1055 158
1136 336 17 37 19 75 19 458 l0 418 206 100 c114 54 210 99 215 99 5 0 9 -119
9 -269 l0 -269 -37 -12 c-95 -30 -181 -110 -225 -206 -32 -70 -31 -207 1 -279
48 -107 136 -181 251 -211 82 -21 154 -13 235 25 282 132 277 532 -9 657 l-66
28 0 311 0 310 100 48 c107 50 140 83 140 140 0 58 -28 85 -160 151 -338 171
-1960 956 -1995 965 -51 14 -88 13 -145 -3z m1100 -624 c540 -264 982 -483
982 -488 0 -5 -136 -75 -301 -156 l-301 -147 0 72 c0 107 -14 144 -75 203
-139 136 -498 230 -1010 264 -579 38 -1243 -39 -1520 -177 -150 -75 -195 -139
-195 -276 l0 -86 -172 83 c-95 46 -236 114 -312 151 l-140 68 150 74 c82 41
527 258 989 483 695 339 847 410 882 410 35 0 200 -77 1023 -478z m-795 -402
c483 -24 879 -112 993 -219 l22 -22 0 -454 c0 -250 -2 -455 -4 -455 -2 0 -30
12 -62 26 -145 64 -387 117 -687 151 -235 26 -782 24 -1019 -5 -283 -34 -545
-95 -660 -153 -21 -11 -42 -19 -48 -19 -7 0 -10 145 -10 449 0 517 -8 477 105
531 217 103 616 168 1105 178 36 1 155 -3 265 -8z m1776 -1073 c66 -35 102
-93 107 -170 4 -77 -24 -138 -86 -182 -57 -40 -149 -47 -209 -16 -152 77 -155
291 -5 371 53 28 137 26 193 -3z m-1781 -37 c445 -22 818 -97 968 -196 65 -43
69 -70 15 -107 -115 -79 -354 -144 -683 -184 -183 -22 -806 -25 -995 -5 -357
39 -628 111 -742 198 -41 31 -41 45 0 80 123 104 521 192 967 214 230 10 247
10 470 0z"/>
</g>
</svg>
