<?xml version="1.0" standalone="no"?>
<!DOCTYPE svg PUBLIC "-//W3C//DTD SVG 20010904//EN"
 "http://www.w3.org/TR/2001/REC-SVG-20010904/DTD/svg10.dtd">
<svg version="1.0" xmlns="http://www.w3.org/2000/svg"
 width="512.000000pt" height="512.000000pt" viewBox="0 0 512.000000 512.000000"
 preserveAspectRatio="xMidYMid meet">

<g transform="translate(0.000000,512.000000) scale(0.100000,-0.100000)"
fill="#000000" stroke="none">
<path d="M1256 5104 c-157 -34 -270 -96 -387 -213 -96 -96 -152 -186 -197
-316 l-27 -80 -3 -1885 c-3 -2070 -5 -1976 58 -2131 86 -212 274 -381 500
-451 l75 -23 1603 -3 1602 -2 0 2050 0 2050 -1568 0 -1568 0 -53 26 c-65 33
-116 98 -132 172 -31 133 57 271 191 301 30 7 571 11 1588 11 l1542 0 0 255 0
255 -1577 -1 c-1353 -1 -1588 -3 -1647 -15z m2454 -2416 l0 -893 -253 253
-252 252 -258 -251 -257 -251 0 891 0 891 510 0 510 0 0 -892z"/>
</g>
</svg>
