<?xml version="1.0" standalone="no"?>
<!DOCTYPE svg PUBLIC "-//W3C//DTD SVG 20010904//EN"
 "http://www.w3.org/TR/2001/REC-SVG-20010904/DTD/svg10.dtd">
<svg version="1.0" xmlns="http://www.w3.org/2000/svg"
 width="512.000000pt" height="512.000000pt" viewBox="0 0 512.000000 512.000000"
 preserveAspectRatio="xMidYMid meet">

<g transform="translate(0.000000,512.000000) scale(0.100000,-0.100000)"
fill="#000000" stroke="none">
<path d="M1035 5113 c-70 -10 -155 -37 -230 -73 -151 -73 -263 -186 -341 -343
-86 -175 -79 2 -79 -2137 0 -2127 -6 -1962 74 -2126 79 -163 192 -279 345
-353 170 -82 -5 -75 1960 -79 1954 -3 1821 -7 1895 67 27 27 44 58 61 110 21
65 22 78 11 126 -12 51 -22 69 -111 180 -72 89 -102 211 -88 349 8 84 56 187
121 261 24 28 53 66 63 85 18 34 19 87 19 1895 l0 1860 -24 48 c-13 26 -40 61
-59 77 -78 64 46 60 -1856 59 -952 -1 -1744 -4 -1761 -6z m3185 -2038 l0
-1535 -1582 -2 -1583 -3 -72 -23 c-40 -12 -75 -22 -78 -22 -3 0 -5 661 -5
1469 l0 1469 28 53 c21 41 40 61 81 86 29 18 65 34 80 36 14 2 725 5 1579 6
l1552 1 0 -1535z m-180 -2062 c-1 -5 -7 -37 -15 -73 -19 -85 -19 -257 0 -345
8 -38 15 -73 15 -78 0 -4 -667 -6 -1482 -5 l-1483 3 -44 23 c-88 48 -130 119
-131 221 0 35 6 82 12 105 15 50 89 127 138 143 40 13 2990 18 2990 6z"/>
<path d="M1667 4093 c-4 -3 -7 -350 -7 -770 l0 -763 900 0 900 0 -2 768 -3
767 -891 3 c-490 1 -894 -1 -897 -5z m1273 -768 l0 -255 -380 0 -380 0 0 255
0 255 380 0 380 0 0 -255z"/>
</g>
</svg>
