<?xml version="1.0" standalone="no"?>
<!DOCTYPE svg PUBLIC "-//W3C//DTD SVG 20010904//EN"
 "http://www.w3.org/TR/2001/REC-SVG-20010904/DTD/svg10.dtd">
<svg version="1.0" xmlns="http://www.w3.org/2000/svg"
 width="512.000000pt" height="512.000000pt" viewBox="0 0 512.000000 512.000000"
 preserveAspectRatio="xMidYMid meet">

<g transform="translate(0.000000,512.000000) scale(0.100000,-0.100000)"
fill="#000000" stroke="none">
<path d="M144 5006 c-28 -13 -65 -41 -82 -62 -60 -72 -63 -98 -60 -441 3 -294
4 -310 25 -348 49 -91 124 -137 233 -142 l75 -5 -90 -91 c-131 -134 -206 -280
-234 -457 -52 -321 94 -656 366 -837 l52 -35 -34 -46 c-18 -26 -38 -65 -44
-87 -13 -49 -15 -925 -2 -972 l9 -31 -86 -4 c-124 -5 -193 -45 -245 -142 -22
-40 -22 -50 -25 -520 -3 -527 -2 -535 58 -608 17 -20 53 -48 82 -62 l52 -26
2196 0 2196 0 52 26 c28 14 66 43 83 65 57 73 59 88 59 583 0 248 -4 465 -9
482 l-9 32 87 4 c97 5 146 25 197 80 72 75 69 51 72 582 3 528 2 535 -59 609
-17 21 -54 50 -83 64 -47 24 -62 27 -214 31 l-164 5 7 48 c13 97 -42 207 -126
249 l-39 20 0 359 0 359 30 12 c99 41 164 199 124 303 -3 10 9 21 40 37 59 28
113 91 131 154 22 72 22 590 0 662 -19 65 -63 116 -127 148 l-52 26 -2195 0
-2196 0 -51 -24z m536 -486 l0 -340 -226 0 -226 0 -29 30 -30 29 3 292 3 291
24 19 c21 17 42 19 252 19 l229 0 0 -340z m340 0 l0 -340 -85 0 -85 0 0 340 0
340 85 0 85 0 0 -340z m2560 0 l0 -340 -1192 2 -1193 3 -3 338 -2 337 1195 0
1195 0 0 -340z m348 3 l-3 -338 -85 0 -85 0 -3 338 -2 337 90 0 90 0 -2 -337z
m652 317 c11 -11 22 -30 25 -42 3 -13 5 -146 3 -296 l-3 -274 -28 -24 c-28
-24 -30 -24 -253 -24 l-224 0 0 340 0 340 230 0 c216 0 231 -1 250 -20z m-174
-854 c36 -30 39 -86 6 -119 l-23 -22 -1822 -5 -1822 -5 -59 -23 c-84 -31 -147
-74 -210 -142 -65 -71 -103 -147 -124 -251 -43 -209 65 -436 257 -538 122 -65
-6 -61 1954 -61 1957 0 1841 4 1866 -59 16 -36 1 -85 -30 -101 -11 -6 -689
-10 -1831 -10 -2006 0 -1869 -4 -2013 66 -304 148 -456 505 -349 822 35 105
75 172 151 253 103 109 215 173 357 204 49 11 400 14 1863 14 l1802 1 27 -24z
m-136 -656 l0 -340 -1758 2 -1757 3 -45 24 c-247 131 -265 441 -35 598 79 54
-10 52 1863 52 l1732 1 0 -340z m-3160 -1370 l0 -510 -271 0 -271 0 -29 29
-29 29 0 447 c0 374 2 451 15 475 8 15 20 30 27 33 7 3 136 6 286 6 l272 1 0
-510z m3070 0 l0 -510 -1450 0 -1450 0 0 510 0 510 1450 0 1450 0 0 -510z
m741 491 l24 -19 3 -462 3 -461 -30 -29 -29 -30 -271 0 -271 0 0 510 0 510
274 0 c255 0 275 -1 297 -19z m-4411 -1681 l0 -510 -144 0 c-127 0 -147 2
-167 19 l-24 19 -3 462 -3 461 30 29 29 30 141 0 141 0 0 -510z m340 0 l0
-510 -85 0 -85 0 0 510 0 510 85 0 85 0 0 -510z m2900 0 l0 -510 -1365 0
-1365 0 0 510 0 510 1365 0 1365 0 0 -510z m350 0 l0 -510 -85 0 -85 0 0 510
0 510 85 0 85 0 0 -510z m481 481 l29 -29 0 -447 c0 -470 -2 -492 -45 -509 -9
-3 -79 -6 -156 -6 l-139 0 0 510 0 510 141 0 141 0 29 -29z"/>
<path d="M1662 2293 c-7 -3 -19 -18 -27 -33 -12 -24 -15 -81 -15 -305 l0 -277
29 -29 29 -29 1052 0 1052 0 29 29 29 29 0 287 0 286 -25 24 -24 25 -1058 -1
c-582 0 -1064 -3 -1071 -6z m2008 -333 l0 -170 -940 0 -940 0 0 170 0 170 940
0 940 0 0 -170z"/>
<path d="M2215 1103 c-272 -22 -500 -92 -601 -184 -55 -52 -74 -91 -74 -157 0
-188 301 -316 776 -329 548 -16 924 121 924 336 0 169 -240 292 -645 331 -102
9 -287 11 -380 3z m505 -192 c220 -38 375 -110 344 -158 -6 -9 -35 -29 -65
-44 -299 -152 -997 -143 -1249 16 -48 30 -50 45 -10 78 69 58 247 105 495 131
93 10 374 -4 485 -23z"/>
</g>
</svg>
