<?xml version="1.0" standalone="no"?>
<!DOCTYPE svg PUBLIC "-//W3C//DTD SVG 20010904//EN"
 "http://www.w3.org/TR/2001/REC-SVG-20010904/DTD/svg10.dtd">
<svg version="1.0" xmlns="http://www.w3.org/2000/svg"
 width="512.000000pt" height="512.000000pt" viewBox="0 0 512.000000 512.000000"
 preserveAspectRatio="xMidYMid meet">

<g transform="translate(0.000000,512.000000) scale(0.100000,-0.100000)"
fill="#000000" stroke="none">
<path d="M1610 5084 c-197 -42 -363 -205 -410 -401 -6 -29 -17 -53 -23 -53
-29 0 -121 -53 -165 -94 -27 -25 -62 -71 -78 -103 l-29 -58 -5 -330 c-5 -325
-5 -331 -28 -359 -38 -49 -66 -158 -59 -232 15 -153 124 -291 258 -325 46 -12
50 -16 60 -53 19 -75 58 -168 100 -239 51 -86 177 -220 253 -267 52 -33 55
-37 56 -76 0 -23 -6 -46 -13 -52 -16 -14 -137 -60 -437 -168 -439 -159 -497
-191 -594 -327 -187 -264 -348 -850 -451 -1636 -31 -238 -31 -236 0 -266 31
-32 78 -33 108 -2 20 19 26 46 46 207 78 636 213 1197 356 1481 74 147 129
208 230 255 78 36 465 178 469 172 2 -1 56 -94 121 -206 121 -209 139 -231
190 -218 11 3 91 55 178 115 l157 110 0 -945 0 -945 25 -24 c30 -31 73 -32
109 -4 l26 20 2 949 3 948 164 -114 c90 -63 173 -114 185 -114 40 0 64 30 176
225 61 107 116 195 120 195 5 0 91 -31 192 -69 101 -37 221 -81 268 -97 79
-27 90 -34 165 -109 88 -89 221 -269 350 -472 l84 -131 -36 -51 c-45 -64 -48
-104 -9 -138 34 -29 68 -29 100 0 13 12 106 141 207 287 100 146 185 268 188
273 4 4 21 -13 38 -37 18 -25 50 -54 72 -65 45 -23 166 -45 217 -39 21 2 34 0
34 -7 0 -31 -88 -221 -163 -350 -98 -171 -428 -636 -516 -728 -69 -71 -136
-101 -230 -100 -139 1 -265 66 -411 213 l-85 85 -49 255 c-60 313 -69 350 -92
367 -49 36 -124 -3 -124 -63 0 -16 48 -273 106 -569 114 -587 114 -585 178
-585 35 1 57 15 74 46 9 17 7 48 -12 142 -13 73 -18 118 -12 115 6 -4 32 -22
57 -40 72 -51 186 -100 279 -119 106 -21 203 -9 297 36 95 47 148 103 323 341
372 508 500 745 592 1097 40 154 41 160 42 332 1 194 -10 265 -50 327 -35 53
-81 82 -153 96 l-60 11 -3 448 c-3 432 -4 448 -23 467 -32 31 -85 31 -115 1
-19 -19 -20 -33 -20 -469 l0 -449 -43 -10 c-93 -24 -173 -109 -208 -221 -23
-74 -28 -215 -11 -290 l11 -44 -130 -188 c-71 -103 -137 -197 -147 -209 l-18
-22 -51 83 c-133 217 -337 480 -426 547 -68 52 -63 49 -277 127 -102 37 -241
89 -310 117 -301 119 -356 142 -367 151 -7 5 -13 27 -13 48 0 35 4 41 59 78
156 106 284 283 341 470 14 44 29 75 39 78 125 40 206 105 257 208 26 54 29
70 29 156 0 91 -2 100 -37 170 l-37 74 -4 360 c-3 328 -6 367 -25 437 -83 303
-331 525 -636 567 -117 17 -715 13 -796 -5z m850 -167 c142 -42 269 -137 350
-261 22 -33 52 -97 67 -141 25 -78 26 -89 31 -379 l4 -299 -38 7 c-22 4 -154
11 -294 16 -532 20 -857 89 -967 206 -26 28 -39 34 -73 34 -78 0 -172 73 -185
143 -4 18 -5 121 -3 228 3 187 4 196 30 249 49 101 139 174 248 204 81 23 750
17 830 -7z m-1268 -589 c3 -129 4 -135 37 -196 39 -73 102 -132 166 -159 25
-10 45 -21 45 -25 0 -11 -62 -55 -95 -68 -17 -6 -68 -16 -115 -21 -47 -5 -104
-11 -128 -15 l-43 -5 3 254 3 255 27 37 c24 34 73 75 90 75 3 0 8 -60 10 -132z
m441 -469 c164 -84 495 -143 880 -157 l182 -7 0 -260 c-1 -290 -7 -328 -71
-460 -91 -186 -266 -327 -474 -382 -87 -22 -253 -22 -340 1 -255 66 -454 262
-522 513 -18 67 -21 114 -25 333 l-5 256 63 13 c35 7 88 24 116 39 51 24 143
104 143 123 0 13 6 12 53 -12z m-538 -567 c-10 -10 -79 54 -98 91 -47 90 -31
177 46 252 l52 50 3 -194 c1 -107 0 -196 -3 -199z m1859 304 c57 -91 43 -200
-35 -270 -21 -20 -44 -36 -49 -36 -6 0 -10 72 -10 196 l0 196 33 -20 c17 -11
45 -41 61 -66z m-974 -1179 c96 0 143 5 203 20 72 20 77 20 77 3 0 -9 11 -38
25 -65 l26 -47 -36 -33 c-139 -131 -433 -136 -574 -9 l-50 45 25 42 c13 23 24
52 24 63 l0 21 78 -19 c55 -15 112 -20 202 -21z m-282 -320 l71 -34 -87 -60
c-48 -33 -92 -63 -98 -66 -13 -8 -180 271 -169 281 4 4 25 14 48 22 l42 15 61
-62 c42 -43 83 -73 132 -96z m850 118 c5 -4 -147 -273 -158 -280 -7 -4 -64 33
-159 103 l-33 25 63 30 c42 20 86 53 129 96 l65 66 45 -18 c24 -10 46 -20 48
-22z m2076 15 c40 -15 50 -66 50 -250 0 -271 -23 -315 -164 -315 -115 1 -123
9 -179 168 -25 72 -31 104 -31 170 0 45 5 99 11 120 13 48 62 104 103 117 35
11 173 4 210 -10z"/>
<path d="M1772 2937 c-54 -57 -7 -135 105 -177 102 -39 228 -15 306 58 53 50
23 142 -46 142 -14 0 -48 -13 -74 -30 -62 -39 -106 -39 -164 0 -54 36 -97 39
-127 7z"/>
<path d="M3681 4831 c-11 -11 -24 -35 -29 -53 -5 -18 -87 -287 -181 -598 -94
-311 -171 -576 -171 -588 0 -28 42 -72 69 -72 40 0 70 23 86 64 9 23 32 97 53
166 l38 125 188 0 188 0 49 -160 c50 -166 67 -195 114 -195 32 0 85 47 85 73
0 12 -83 293 -184 625 -131 430 -188 607 -202 617 -27 21 -80 19 -103 -4z
m119 -551 c33 -113 63 -213 66 -222 5 -17 -6 -18 -130 -18 -75 0 -136 3 -136
7 0 4 27 97 61 207 33 111 63 209 66 219 2 10 6 17 8 15 2 -2 31 -95 65 -208z"/>
<path d="M4965 4405 c-18 -18 -25 -35 -25 -65 0 -22 -2 -40 -5 -40 -2 0 -21
11 -41 25 -51 35 -155 65 -223 65 -270 0 -478 -240 -433 -500 41 -240 267
-404 497 -361 66 12 153 48 188 79 16 14 17 13 17 -10 0 -14 9 -36 19 -49 27
-33 95 -33 122 0 18 22 19 46 19 428 l0 404 -25 24 c-15 16 -36 25 -55 25 -19
0 -40 -9 -55 -25z m-185 -200 c58 -29 118 -95 140 -153 40 -107 18 -205 -65
-289 -112 -111 -269 -111 -381 1 -56 57 -84 122 -84 197 0 109 88 224 199 260
40 13 152 4 191 -16z"/>
<path d="M922 1228 c-17 -19 -39 -119 -126 -563 -58 -297 -106 -554 -106 -572
0 -61 86 -97 130 -53 11 11 22 30 25 42 2 13 52 265 110 561 98 500 104 540
90 566 -24 47 -87 57 -123 19z"/>
</g>
</svg>
